# xmcd
#
# Track frame offsets:
#	150
#	17554
#	35058
#	58563
#	69451
#	79773
#	92350
#	104255
#	117580
#	129611
#	141524
#	154404
#	163920
#	173136
#	183023
#	195024
#	208927
#	222800
#	235516
#	243295
#	255921
#	264112
#	272564
#	284265
#	298639
#	309613
#	319845
#	332054
#
# Disc length: 4622 seconds
#
# Revision: 0
# Processed by: cddbd v1.5.2PL0 Copyright (c) Steve Scherf et al.
# Submitted via: EZCDAudioConverter 1.3.4.1
#
DISCID=8e120c1c
DTITLE=Graham Bond Organization - Wade In The Water 2/4
DYEAR=1900
DGENRE=
TTITLE0=Green Onions [Version 1
TTITLE1=High Heeled Sneakers [Version 1]
TTITLE2=Honey Bee
TTITLE3=Long Tall Shorty [Version 1]
TTITLE4=Long Legged Baby [Version 2]
TTITLE5=Hoochie Coochie Man [Version 2]
TTITLE6=Strut Around
TTITLE7=High Heeled Sneakers [Version 2]
TTITLE8=Little Girl [Version 1]
TTITLE9=Wade In The Water [Version 3]
TTITLE10=Harmonica
TTITLE11=Half A Man [Stereo Remix]
TTITLE12=Keep A-Drivin'  [Stereo Remix]
TTITLE13=What Am I Living For? [Stereo Remix]
TTITLE14=Neighbour Neighbour [Stereo Remix]
TTITLE15=Spanish Blues [Version 2 - Master Take - Stereo Remix]
TTITLE16=Spanish Blues [Version 3 - Alternate Take - Stereo Remix]
TTITLE17=Tammy [Stereo Remix]
TTITLE18=I Want You [Stereo Remix]
TTITLE19=Wade In The Water [Version 4 - Stereo Remix]
TTITLE20=Early In The Morning [Stereo Remix]
TTITLE21=Baby Make Love To Me [Stereo Remix]
TTITLE22=Baby Be Good To Me [Stereo Remix]
TTITLE23=Got My Mojo Working [Stereo Remix]
TTITLE24=Train Time [Stereo Remix]
TTITLE25=Little Girl [Version 2 - Stereo Remix]
TTITLE26=Oh Baby [Stereo Remix]
TTITLE27=Hoochie Coochie Man [Version 3 - Stereo Remix]
EXTD=
EXTT0=
EXTT1=
EXTT2=
EXTT3=
EXTT4=
EXTT5=
EXTT6=
EXTT7=
EXTT8=
EXTT9=
EXTT10=
EXTT11=
EXTT12=
EXTT13=
EXTT14=
EXTT15=
EXTT16=
EXTT17=
EXTT18=
EXTT19=
EXTT20=
EXTT21=
EXTT22=
EXTT23=
EXTT24=
EXTT25=
EXTT26=
EXTT27=
PLAYORDER=
